<svg width="744" height="204" viewBox="0 0 744 204" fill="none" xmlns="http://www.w3.org/2000/svg">
<g clip-path="url(#clip0)">
<path d="M587.899 0.16827C587.855 -0.0251047 587.804 -0.211807 587.734 -0.390513C587.659 -0.599891 587.571 -0.79857 587.464 -0.991946C587.365 -1.18132 587.246 -1.36269 587.115 -1.5334C587 -1.68676 586.874 -1.83213 586.738 -1.9695C586.602 -2.10819 586.459 -2.24025 586.301 -2.36561C585.873 -2.71102 585.37 -3.00838 584.802 -3.26177C584.233 -3.51782 583.599 -3.7259 582.909 -3.89927C581.452 -4.26469 579.744 -4.46335 577.854 -4.55404C575.961 -4.64473 573.889 -4.63007 571.712 -4.56205C566.372 -4.39668 560.393 -3.92993 554.879 -4.00861C550.788 -4.06996 546.949 -4.43006 543.813 -5.43561C542.533 -5.8477 541.4 -6.33843 540.387 -6.89055C537.676 -8.3642 535.813 -10.2886 534.195 -12.3531L534.078 -12.4971C532.849 -14.0761 531.814 -15.6471 530.487 -17.0194C527.672 -19.9321 523.539 -21.9511 513.433 -21.2457C511.473 -21.1096 509.289 -20.8696 506.847 -20.5161C505.771 -20.3601 504.643 -20.1801 503.468 -19.9774C502.095 -19.744 500.81 -19.6974 499.566 -19.8027C495.456 -20.1534 491.819 -22.1672 487.069 -24.4704C482.322 -26.7709 476.46 -29.3607 467.894 -30.8651C467.265 -30.9744 466.616 -31.0798 465.953 -31.1785C465.292 -31.2772 464.614 -31.3679 463.917 -31.4532C462.918 -31.5759 461.886 -31.6826 460.817 -31.7746C459.753 -31.868 458.648 -31.9427 457.508 -32C457.26 -31.9947 457.02 -31.9853 456.779 -31.9747C456.539 -31.964 456.301 -31.9493 456.065 -31.932L455.786 -31.912L455.511 -31.8879L454.94 -31.8293L454.379 -31.7599C454.037 -31.7172 453.699 -31.6666 453.368 -31.6079C453.033 -31.5532 452.703 -31.4905 452.377 -31.4238C451.454 -31.2318 450.555 -30.9944 449.693 -30.7197C448.83 -30.4437 447.997 -30.1302 447.195 -29.7835C445.349 -28.986 443.794 -27.9911 442.463 -26.8749C441.132 -25.7586 440.016 -24.5224 439.047 -23.2368C437.172 -20.7549 435.833 -18.0997 434.49 -15.8218C433.399 -13.9694 432.306 -12.3638 430.913 -11.3009C430.435 -10.9355 429.937 -10.5847 429.422 -10.246C424.558 -7.07594 418.123 -5.06482 411.933 -3.49249C405.745 -1.91748 399.807 -0.782565 395.94 0.644409C393.668 1.47792 391.27 2.40475 389.116 3.46898C386.966 4.53054 385.054 5.72415 383.756 7.09111C383.336 7.53254 382.984 7.99262 382.704 8.47006C382.43 8.94883 382.223 9.44496 382.114 9.96374C381.993 10.5185 381.971 11.08 382.036 11.6401C382.104 12.2002 382.257 12.7617 382.481 13.3205L382.627 13.6565L382.787 13.9899L382.938 14.278L383.103 14.5621C383.314 14.9315 383.552 15.2809 383.819 15.6143C384.084 15.9437 384.378 16.2544 384.699 16.5478C384.918 16.7506 385.148 16.9452 385.389 17.1293C385.632 17.3133 385.884 17.4907 386.149 17.6627C389.691 19.9486 395.155 20.8914 401.09 21.4796C407.025 22.0664 413.436 22.2958 418.866 23.1546C420.987 23.4893 422.955 23.9187 424.689 24.5042C426.426 25.0883 427.923 25.8298 429.101 26.7807C429.487 27.0928 429.832 27.4262 430.146 27.7863C433.498 31.6324 435.646 35.7026 437.529 39.8195C439.586 44.3098 441.333 48.8575 443.984 53.2384C445.781 56.2071 447.859 58.9876 450.366 61.4695C452.873 63.9527 455.81 66.1385 459.33 67.9203C460.761 68.6471 462.289 69.3059 463.917 69.8887C465.552 70.4741 467.291 70.9849 469.15 71.4143C470.124 71.6384 471.13 71.8411 472.17 72.0211C473.212 72.2025 474.283 72.3585 475.391 72.4905C475.794 72.5386 476.2 72.5812 476.608 72.6252C477.019 72.6653 477.432 72.7039 477.852 72.7386C478.326 72.7773 478.807 72.8133 479.295 72.844C479.781 72.876 480.272 72.9013 480.772 72.924C481.197 72.944 481.627 72.96 482.06 72.9707C482.492 72.9853 482.929 72.9947 483.372 73C483.714 72.9707 484.049 72.9387 484.37 72.9026C484.698 72.8693 485.021 72.832 485.337 72.7933C485.704 72.7479 486.063 72.6999 486.413 72.6479C486.763 72.5959 487.103 72.5426 487.441 72.4826C489.105 72.1972 490.58 71.8344 491.896 71.4063C493.213 70.9782 494.379 70.4835 495.419 69.9287C496.337 69.4406 497.163 68.9071 497.924 68.3323C498.682 67.7589 499.369 67.1441 500.018 66.4946C502.015 64.4835 503.596 62.1337 505.489 59.5984C507.377 57.0659 509.58 54.3493 512.818 51.6034C514.453 50.2164 516.353 48.8241 518.61 47.4452C522.628 44.9846 531.586 44.7899 540.749 45.7355C544.459 46.1182 548.2 46.685 551.662 47.3665C551.929 47.4185 552.189 47.4705 552.454 47.5225C560.685 49.1255 567.857 49.8283 570.777 48.3267C571.931 47.7319 572.757 47.1144 573.308 46.4743C575.84 43.5323 572.562 40.1129 568.743 36.2934C565.704 33.2515 562.32 29.9547 561.258 26.4406C560.998 25.5898 561.295 24.7096 562.002 23.7974C563.294 22.1277 565.952 20.3499 569.101 18.4309C572.247 16.5145 575.883 14.4594 579.119 12.2416C580.465 11.3187 581.741 10.3651 582.887 9.3836C584.032 8.40073 585.042 7.38717 585.859 6.34161C586.138 5.97886 586.398 5.61616 586.629 5.24541C586.862 4.876 587.068 4.50256 587.243 4.12648C587.336 3.92643 587.423 3.72375 587.501 3.51971C587.579 3.317 587.649 3.1116 587.71 2.90623L587.79 2.6115L587.858 2.31144C587.909 2.05939 587.948 1.80333 587.97 1.54728C587.994 1.28989 588.004 1.02979 587.999 0.768398C587.975 0.55902 587.941 0.360312 587.899 0.16827Z" fill="#82674E"/>
<path d="M452.811 10.5613C450.188 -0.708341 440.562 -5.03609 434.453 -5.66499C429.071 -6.21928 424.426 -8.02598 419.377 -8.17122C414.617 -8.30846 412.044 -6.93876 409.421 -5.56903C406.779 -4.18997 404.084 -2.80957 399.053 -2.97079C390.978 -3.22795 388.796 -6.30188 382.807 -7.41978C381.618 -7.63963 380.279 -7.78348 378.714 -7.81279C372.446 -7.93138 365.642 -3.30923 359.714 -3.30923C354.584 -3.3079 349.76 -4.27124 345.174 -5.23325C339.914 -6.33916 334.966 -7.44373 330.226 -7.09331C323.52 -6.59765 318.668 -10.1299 311.855 -10.2418C304.805 -10.3564 297.721 -8.51105 290.617 -6.75891C284.157 -5.16267 277.682 -3.64099 271.207 -3.74092C261.586 -3.89015 249.995 -8.3751 240.392 -8.50835C237.553 -8.54832 234.394 -7.63163 231.237 -6.71492C228.054 -5.79022 224.875 -4.86683 222.032 -4.92279C218.126 -5.00007 215.202 -6.94541 211.875 -8.10329C210.549 -8.56431 209.156 -8.90007 207.612 -8.9427C206.069 -8.98401 204.055 -8.1193 202.043 -7.25589C200.023 -6.38848 198.005 -5.52106 196.468 -5.56903C193.82 -5.65031 191.458 -5.90743 189.279 -6.10596C180.847 -6.8761 174.84 -8.47104 164.997 -8.50835C159.687 -8.52833 146.573 -5.61034 141.394 -5.56903C137.662 -5.53972 134.109 -6.02075 130.663 -6.73093C121.325 -8.65495 112.779 -12.2644 103.635 -11.9846L103.37 -11.9753C96.6159 -11.7155 91.2611 -6.24723 85.0103 -5.56903C83.4231 -5.39582 81.6437 -6.09535 79.8496 -6.92545C77.4078 -8.05667 74.9363 -9.42774 72.8874 -9.15726C62.9376 -7.83949 53.8093 -6.40313 45.6737 -5.56903C41.5267 -5.14399 37.7808 -5.09472 34.3816 -5.2626C18.4985 -6.0474 10.0969 -11.5609 3.15834 -5.56903C1.57184 -3.14535 0.643389 -0.712333 0.241863 1.70868C-0.162807 4.13236 -0.0414785 6.54667 0.470093 8.93037C1.7481 14.8836 5.72748 20.5984 9.90032 25.8868C14.0726 31.1739 18.437 36.0385 20.4815 40.2903C20.6159 40.5675 20.8608 41.2723 20.9374 42.1224C21.1584 44.654 22.4973 48.1942 23.6097 51.1469C24.1163 52.5073 24.6242 53.8024 25.1226 55.0296L25.9506 57.0309C27.9453 61.7463 29.719 65.2999 30.8048 67.609C32.3638 70.9227 33.5473 73.2491 34.2277 76.2458L34.8499 81.3782C34.9264 83.4355 34.8621 85.8725 34.6294 88.9091C30.3676 100.984 46.1253 107.317 51.3487 96.4932C55.096 88.7279 45.6983 64.3352 52.3528 52.3194C54.427 48.5753 58.0574 46.0331 64.1319 45.5707C72.5414 44.9298 89.0466 52.0716 87.4037 76.7747C86.7853 86.1603 85.4292 99.2993 91.0262 103.804C92.2811 104.814 93.8864 105.39 95.9288 105.39C107.284 105.39 104.326 76.311 107.097 61.8769C107.925 57.5532 109.27 54.5432 111.665 54.0209C113.831 53.5533 115.969 54.1075 117.752 55.4839C124.292 60.5471 122.684 81.6874 132.274 84.7493C133.428 85.1184 134.741 85.225 136.249 85.0091C146.084 83.6154 145.52 60.4858 149.691 57.0562C161.822 47.0883 176.527 68.2938 178.865 82.191C180.831 93.895 177.141 105.361 187.716 105.39C201.159 105.427 195.447 89.1822 197.449 76.868C197.878 74.2324 198.458 71.7288 199.246 69.4104C202.265 60.5192 208.318 54.342 220.499 53.8051C254.916 52.2888 249.671 90.4507 271.207 95.7204C284.268 98.9196 279.642 139.245 293.277 138.999C293.772 138.991 294.233 138.911 294.66 138.767C304.568 135.425 298.722 89.3448 311.036 83.3689C325.358 76.4203 323.329 45.664 337.099 45.3389C350.509 45.0231 356.043 64.9535 354.736 80.5668C354.242 86.4188 353.977 97.6165 365.553 97.7937C366.837 97.8137 367.983 97.6418 368.991 97.2994C373.421 95.7991 375.161 91.0503 374.359 85.2249C372.583 72.2991 376.432 57.5279 382.088 53.9516C393.59 46.6819 409.971 55.5386 415.869 73.7408C417.537 78.8853 409.264 102.908 425.048 101.912C436.868 101.169 434.965 88.3321 433.89 79.1891C432.805 73.8913 433.071 68.8854 434.895 64.3072C435.483 62.8296 435.949 61.9422 436.617 60.4725C437.678 58.4379 438.821 56.6005 439.698 54.5619C440.65 51.7665 441.414 49.2455 442.082 46.9538C442.748 44.6607 443.319 42.6007 443.878 40.722C444.34 39.1524 444.828 37.5802 445.426 36.0292C446.025 34.4796 446.737 32.95 447.654 31.463C448.812 29.5696 449.92 27.4617 450.828 25.1433C451.731 22.8249 452.432 20.2946 452.774 17.5538C452.911 16.4559 452.986 15.3234 452.999 14.1575C453.007 12.9916 452.948 11.7938 452.811 10.5613Z" fill="#82674E"/>
<path d="M550.19 10.5613C552.824 -0.708341 562.493 -5.03609 568.629 -5.66499C574.035 -6.21928 578.7 -8.02598 583.771 -8.17122C588.553 -8.30846 591.137 -6.93876 593.771 -5.56903C596.426 -4.18997 599.132 -2.80957 604.185 -2.97079C612.296 -3.22795 614.488 -6.30188 620.503 -7.41978C621.697 -7.63963 623.042 -7.78348 624.614 -7.81279C630.909 -7.93138 637.744 -3.30923 643.697 -3.30923C648.851 -3.3079 653.695 -4.27124 658.302 -5.23325C663.586 -6.33916 668.555 -7.44373 673.316 -7.09331C680.052 -6.59765 684.925 -10.1299 691.768 -10.2418C698.85 -10.3564 705.965 -8.51105 713.1 -6.75891C719.589 -5.16267 726.092 -3.64099 732.596 -3.74092C742.26 -3.89015 753.902 -8.3751 763.547 -8.50835C766.398 -8.54832 769.571 -7.63163 772.742 -6.71492C775.939 -5.79022 779.132 -4.86683 781.988 -4.92279C785.911 -5.00007 788.848 -6.94541 792.19 -8.10329C793.522 -8.56431 794.921 -8.90007 796.472 -8.9427C798.021 -8.98401 800.044 -8.1193 802.065 -7.25589C804.094 -6.38848 806.121 -5.52106 807.664 -5.56903C810.324 -5.65031 812.697 -5.90743 814.885 -6.10596C823.354 -6.8761 829.388 -8.47104 839.274 -8.50835C844.608 -8.52833 857.78 -5.61034 862.982 -5.56903C866.731 -5.53972 870.299 -6.02075 873.76 -6.73093C883.139 -8.65495 891.724 -12.2644 900.908 -11.9846L901.174 -11.9753C907.958 -11.7155 913.336 -6.24723 919.614 -5.56903C921.209 -5.39582 922.996 -6.09535 924.798 -6.92545C927.25 -8.05667 929.733 -9.42774 931.791 -9.15726C941.784 -7.83949 950.953 -6.40313 959.125 -5.56903C963.29 -5.14399 967.052 -5.09472 970.467 -5.2626C986.42 -6.0474 994.859 -11.5609 1001.83 -5.56903C1003.42 -3.14535 1004.35 -0.712333 1004.76 1.70868C1005.16 4.13236 1005.04 6.54667 1004.53 8.93037C1003.24 14.8836 999.247 20.5984 995.056 25.8868C990.865 31.1739 986.482 36.0385 984.428 40.2903C984.293 40.5675 984.047 41.2723 983.97 42.1224C983.748 44.654 982.403 48.1942 981.286 51.1469C980.777 52.5073 980.267 53.8024 979.766 55.0296L978.935 57.0309C976.931 61.7463 975.15 65.2999 974.059 67.609C972.493 70.9227 971.305 73.2491 970.621 76.2458L969.996 81.3782C969.919 83.4355 969.984 85.8725 970.218 88.9091C974.498 100.984 958.671 107.317 953.425 96.4932C949.661 88.7279 959.1 64.3352 952.416 52.3194C950.333 48.5753 946.686 46.0331 940.585 45.5707C932.138 44.9298 915.56 52.0716 917.21 76.7747C917.832 86.1603 919.194 99.2993 913.572 103.804C912.312 104.814 910.699 105.39 908.648 105.39C897.243 105.39 900.213 76.311 897.43 61.8769C896.598 57.5532 895.248 54.5432 892.842 54.0209C890.667 53.5533 888.519 54.1075 886.728 55.4839C880.16 60.5471 881.774 81.6874 872.142 84.7493C870.983 85.1184 869.664 85.225 868.15 85.0091C858.271 83.6154 858.837 60.4858 854.648 57.0562C842.464 47.0883 827.694 68.2938 825.346 82.191C823.371 93.895 827.077 105.361 816.455 105.39C802.953 105.427 808.69 89.1822 806.68 76.868C806.249 74.2324 805.665 71.7288 804.874 69.4104C801.842 60.5192 795.762 54.342 783.528 53.8051C748.958 52.2888 754.227 90.4507 732.596 95.7204C719.477 98.9196 724.123 139.245 710.429 138.999C709.931 138.991 709.468 138.911 709.039 138.767C699.087 135.425 704.96 89.3448 692.591 83.3689C678.205 76.4203 680.243 45.664 666.413 45.3389C652.943 45.0231 647.385 64.9535 648.698 80.5668C649.194 86.4188 649.46 97.6165 637.833 97.7937C636.544 97.8137 635.392 97.6418 634.379 97.2994C629.93 95.7991 628.182 91.0503 628.988 85.2249C630.772 72.2991 626.906 57.5279 621.225 53.9516C609.673 46.6819 593.219 55.5386 587.295 73.7408C585.619 78.8853 593.929 102.908 578.076 101.912C566.203 101.169 568.115 88.3321 569.194 79.1891C570.284 73.8913 570.017 68.8854 568.185 64.3072C567.595 62.8296 567.126 61.9422 566.456 60.4725C565.39 58.4379 564.241 56.6005 563.361 54.5619C562.404 51.7665 561.637 49.2455 560.966 46.9538C560.298 44.6607 559.724 42.6007 559.163 40.722C558.698 39.1524 558.208 37.5802 557.608 36.0292C557.006 34.4796 556.291 32.95 555.369 31.463C554.206 29.5696 553.094 27.4617 552.182 25.1433C551.275 22.8249 550.571 20.2946 550.227 17.5538C550.09 16.4559 550.014 15.3234 550.001 14.1575C549.993 12.9916 550.053 11.7938 550.19 10.5613Z" fill="#82674E"/>
</g>
<defs>
<clipPath id="clip0">
<rect width="744" height="204" fill="white"/>
</clipPath>
</defs>
</svg>
